<svg xmlns="http://www.w3.org/2000/svg" style="display: none;">
  <defs>
    <symbol id="send" width="24" height="24" viewBox="0 0 24 24">
      <path d="M2.01 21 23 12 2.01 3 2 10l15 2-15 2 .01 7Z"/>
    </symbol>
    <symbol id="arrow-right" width="24" height="24" viewBox="0 0 24 24">
      <path d="m14.2 4.8 6.5 6.5.71.7-.7.7-6.5 6.5-1.42-1.4 4.8-4.8H3v-2h14.59l-4.8-4.8 1.42-1.4Z"/>
    </symbol>
    <symbol id="chevron-right" width="24" height="24" viewBox="0 0 24 24">
      <path d="m13.59 12-5.8-5.8 1.42-1.4 6.5 6.5.7.7-.7.7-6.5 6.5-1.42-1.4 5.8-5.8Z"/>
    </symbol>
    <symbol id="github" width="24" height="24" viewBox="0 0 24 24">
      <path d="M12 2a10 10 0 0 0-3.16 19.5c.5.08.66-.23.66-.5v-1.69c-2.77.6-3.36-1.34-3.36-1.34-.46-1.16-1.11-1.47-1.11-1.47-.91-.62.07-.6.07-.6 1 .07 1.53 1.03 1.53 1.03.87 1.52 2.34 1.07 2.91.83.09-.65.35-1.09.63-1.34-2.22-.25-4.55-1.11-4.55-4.92 0-1.11.38-2 1.03-2.71-.1-.25-.45-1.29.1-2.64 0 0 .84-.27 2.75 1.02a9.42 9.42 0 0 1 5 0c1.91-1.29 2.75-1.02 2.75-1.02.55 1.35.2 2.39.1 2.64.65.71 1.03 1.6 1.03 2.71 0 3.82-2.34 4.66-4.57 4.91.36.31.69.92.69 1.85V21c0 .27.16.59.67.5a10.03 10.03 0 0 0 3.9-16.57A10 10 0 0 0 12 2Z"/>
    </symbol>
    <symbol id="facebook" width="24" height="24" viewBox="0 0 24 24">
      <path d="M22 12a10 10 0 1 0-11.5 9.87v-6.99h-2.2V12h2.2v-2.2c0-2.17 1.29-3.37 3.27-3.37.95 0 1.94.17 1.94.17v2.14h-1.09c-1.07 0-1.4.66-1.4 1.34V12h2.38l-.38 2.88h-2v6.99A10 10 0 0 0 22 12Z"/>
    </symbol>
    <symbol id="menu" width="24" height="24" viewBox="0 0 24 24">
      <path d="M22 6H2V4h20v2ZM2 13h16v-2H2v2Zm0 7h20v-2H2v2Z"/>
    </symbol>
    <symbol id="figma" width="24" height="24" viewBox="0 0 24 24">
      <path fill-rule="evenodd" d="M15 10a2 2 0 1 0 0 4 2 2 0 0 0 0-4Zm-2 5.46A4 4 0 0 0 17.65 9a4.01 4.01 0 0 0 .18-5.83A4 4 0 0 0 15 2H9a4 4 0 0 0-2.65 7 4.01 4.01 0 0 0 0 6A3.98 3.98 0 0 0 5 18a4 4 0 1 0 8 0v-2.54ZM11 16H9a2 2 0 1 0 2 2v-2ZM9 8h2V4H9a2 2 0 1 0 0 4Zm0 2a2 2 0 1 0 0 4h2v-4H9Zm4-2V4h2a2 2 0 0 1 0 4h-2Z"/>
    </symbol>
    <symbol id="copy" width="24" height="24" viewBox="0 0 24 24">
      <path d="M3 2h12v4H7v10H3V2Zm6 20V8h12v11l-3 3H9Z"/>
    </symbol>
    <symbol id="mail" width="24" height="24" viewBox="0 0 24 24">
      <path d="M20 4H4a2 2 0 0 0-2 2v12c0 1.1.9 2 2 2h16a2 2 0 0 0 2-2V6c0-1.1-.9-2-2-2Zm0 4-8 5-8-5V6l8 5 8-5v2Z"/>
    </symbol>
    <symbol id="error" width="24" height="24" viewBox="0 0 24 24">
      <path d="M19.7 19H4.3L12 5.07 19.7 19ZM11.12 2.52l-9.39 17L2.61 21h18.78l.88-1.48-9.4-17h-1.75ZM11 14v-4h2v4h-2Zm0 3v-2h2v2h-2Z"/>
    </symbol>
    <symbol id="arrow-left" width="24" height="24" viewBox="0 0 24 24">
      <path d="m9.8 19.2-6.5-6.5-.71-.7.7-.7 6.5-6.5 1.42 1.4L6.4 11H21v2H6.41l4.8 4.8-1.42 1.4Z"/>
    </symbol>
    <symbol id="check" width="24" height="24" viewBox="0 0 24 24">
      <path d="m20.2 7.2-10 10-.7.71-.7-.7-5-5 1.4-1.42 4.3 4.3 9.3-9.3 1.4 1.42Z"/>
    </symbol>
    <symbol id="link" width="24" height="24" viewBox="0 0 24 24">
      <path d="M9 4 8 5v2h2V6h10v7H10v-2H8v3l1 1h12l1-1V5l-1-1H9Zm2 4H3L2 9v9l1 1h12l1-1v-2h-2v1H4v-7h10v2h2V9l-1-1h-4Z"/>
    </symbol>
    <symbol id="close" width="24" height="24" viewBox="0 0 24 24">
      <path d="M19 6.41 17.59 5 12 10.59 6.41 5 5 6.41 10.59 12 5 17.59 6.41 19 12 13.41 17.59 19 19 17.59 13.41 12 19 6.41Z"/>
    </symbol>
    <symbol id="phone" width="24" height="24" viewBox="0 0 24 24">
      <path d="M6.62 10.79a15.05 15.05 0 0 0 6.59 6.59l2.2-2.2c.27-.27.67-.36 1.02-.24 1.12.37 2.33.57 3.57.57.55 0 1 .45 1 1V21c0 .55-.45 1-1 1A17 17 0 0 1 3 5c0-.55.45-1 1-1h3.5c.55 0 1 .45 1 1 0 1.24.2 2.45.57 3.57.11.35.03.74-.25 1.02l-2.2 2.2Z"/>
    </symbol>
    <symbol id="pause" width="24" height="24" viewBox="0 0 24 24">
      <path d="M6 19h4V5H6v14Zm8-14v14h4V5h-4Z"/>
    </symbol>
    <symbol id="play" width="24" height="24" viewBox="0 0 24 24">
      <path d="M8 5v14l11-7L8 5Z"/>
    </symbol>
    <symbol id="bluesky" width="24" height="24" viewBox="0 0 24 24">
      <path d="M6.34 3.78C8.63 5.51 11.09 9.01 12 10.9v4.96c0-.1-.04.02-.13.27-.47 1.4-2.32 6.83-6.54 2.49-2.22-2.29-1.19-4.58 2.86-5.27-2.32.4-4.92-.26-5.63-2.82C2.35 9.8 2 5.25 2 4.64c0-3.07 2.68-2.1 4.34-.86Zm11.32 0C15.37 5.51 12.91 9.01 12 10.9v4.96c0-.1.04.02.13.27.47 1.4 2.32 6.83 6.54 2.49 2.22-2.29 1.19-4.58-2.86-5.27 2.32.4 4.92-.26 5.63-2.82.21-.73.56-5.27.56-5.88 0-3.07-2.68-2.1-4.34-.86Z"/>
    </symbol>
    <symbol id="line" width="24" height="24" viewBox="0 0 24 24">
      <path d="M12 2C5.92 2 1 5.9 1 10.7c0 2.76 1.84 5.19 4.69 6.69l-.3 4.03a.75.75 0 0 0 1.14.68l4.61-2.86c.28.02.56.03.85.03 6.08 0 11-3.9 11-8.7C23 5.9 18.08 2 12 2Zm6.2 9.05h-1.42c-.2 0-.36-.15-.36-.34V8.3h.02c0-.19.16-.34.36-.34h1.4c.2 0 .36.15.36.34v2.41c0 .19-.16.34-.36.34Zm-3.03 0h-1.4c-.2 0-.36-.15-.36-.34V8.3c0-.19.16-.34.36-.34h1.4c.2 0 .36.15.36.34v2.41c0 .19-.16.34-.36.34Zm-3.03 0H10.6c-.2 0-.36-.15-.36-.34v-.66c0-.09-.07-.16-.16-.16H9.48c-.2 0-.36-.15-.36-.34V8.3c0-.19.16-.34.36-.34h2.66c.2 0 .36.15.36.34v.66c0 .09.07.16.16.16h.99c.2 0 .36.15.36.34v1.41c0 .19-.16.34-.36.34Zm-4.12 0H6.61c-.2 0-.36-.15-.36-.34V8.3c0-.19.16-.34.36-.34h1.4c.2 0 .36.15.36.34v1.4h1.62c.2 0 .36.15.36.34v.66c0 .19-.16.34-.36.34Z"/>
    </symbol>
    <symbol id="whatsapp" width="24" height="24" viewBox="0 0 24 24">
      <path d="M20.52 3.48A11.8 11.8 0 0 0 12 0C5.37 0 0 5.37 0 12c0 2.12.56 4.16 1.62 5.97L0 24l6.2-1.62A12 12 0 0 0 12 24c6.63 0 12-5.37 12-12 0-3.2-1.25-6.21-3.48-8.52ZM12 21.6a9.6 9.6 0 0 1-4.9-1.34l-.35-.2-3.68.96.98-3.58-.23-.37A9.57 9.57 0 0 1 2.4 12c0-5.29 4.31-9.6 9.6-9.6 2.57 0 4.98 1 6.79 2.81A9.6 9.6 0 0 1 21.6 12c0 5.29-4.31 9.6-9.6 9.6Zm5.49-7.17c-.3-.15-1.77-.87-2.05-.97-.27-.09-.47-.15-.66.15-.2.3-.76.97-.93 1.17-.17.2-.34.23-.63.08-.3-.15-1.27-.47-2.42-1.49-.89-.79-1.49-1.77-1.67-2.06-.17-.3-.02-.46.13-.61.14-.14.3-.34.45-.51.15-.17.2-.3.3-.5.1-.2.05-.38-.02-.53-.08-.15-.66-1.6-.9-2.19-.24-.58-.48-.5-.66-.51h-.57c-.2 0-.53.08-.8.38-.27.3-1.05 1.03-1.05 2.5s1.08 2.89 1.23 3.09c.15.2 2.12 3.24 5.14 4.54.72.31 1.28.5 1.72.64.72.23 1.38.2 1.9.12.58-.09 1.77-.72 2.02-1.42.25-.7.25-1.3.17-1.42-.08-.12-.27-.19-.57-.34Z"/>
    </symbol>
  </defs>
</svg>
